# xmcd CD database file
#
# Track frame offsets:
#	150
#	13475
#	23890
#	45725
#	57717
#	76690
#	90352
#	116515
#	124270
#	148442
#	156465
#	170515
#	199265
#	205012
#	212672
#	235295
#	245627
#	252947
#	256790
#	289320
#	317927
#	326892
#
# Disc length: 4578 seconds
#
# Revision: 0
# Processed by: cddbd v1.4PL0 Copyright (c) Steve Scherf et al.
# Submitted via: CDex 1.51
#
DISCID=5411e016
DTITLE=Виктор Зинчук - Лучшие песни
DYEAR=1999
DGENRE=Blues
TTITLE0=El Condor Passa
TTITLE1=Н. Паганини. Каприс № 24
TTITLE2=Не возвратить
TTITLE3=М.Огинский. Полонез
TTITLE4=Дж. Россини. Тарантелла
TTITLE5=Mix No. One
TTITLE6=В. Зинчук. Блюз
TTITLE7=Л. К. Дакен. Кукушка
TTITLE8=Я уезжаю
TTITLE9=И. С. Бах. Скерцо Си-минор
TTITLE10=А. Вивальди. Летняя гроза
TTITLE11=Дж. Гершвин. Колыбельная
TTITLE12=В. Зинчук. Бурре
TTITLE13=В. Зинчук. Колыбельная для Антуанетты
TTITLE14=И. С. Бах. Прелюдия Фа--минор
TTITLE15=И. С. Бах. Прелюдия До-минор
TTITLE16=И. С. Бах. Фуга До-минор
TTITLE17=М. И. Глинка. Фрагмент увертюры "Руслан и Людмила"
TTITLE18=Ф. Шуберт. Аве Мария
TTITLE19=В. Зинчук. Одинокий в ночи
TTITLE20=Дж. Верди. Марш из оперы "Аида"
TTITLE21=Прощание
EXTD=YEAR: 1999
EXTT0=
EXTT1=
EXTT2=
EXTT3=
EXTT4=
EXTT5=
EXTT6=
EXTT7=
EXTT8=
EXTT9=
EXTT10=
EXTT11=
EXTT12=
EXTT13=
EXTT14=
EXTT15=
EXTT16=
EXTT17=
EXTT18=
EXTT19=
EXTT20=
EXTT21=
PLAYORDER=
